<?xml version="1.0" encoding="UTF-8" standalone="no"?>
<!-- Created with Inkscape (http://www.inkscape.org/) -->

<svg
   xmlns:dc="http://purl.org/dc/elements/1.1/"
   xmlns:cc="http://creativecommons.org/ns#"
   xmlns:rdf="http://www.w3.org/1999/02/22-rdf-syntax-ns#"
   xmlns:svg="http://www.w3.org/2000/svg"
   xmlns="http://www.w3.org/2000/svg"
   xmlns:sodipodi="http://sodipodi.sourceforge.net/DTD/sodipodi-0.dtd"
   xmlns:inkscape="http://www.inkscape.org/namespaces/inkscape"
   width="8.5in"
   height="11in"
   viewBox="0 0 612 792"
   version="1.1"
   id="svg8"
   inkscape:version="0.91 r13725"
   sodipodi:docname="icon.svg">
  <defs
     id="defs2">
    <inkscape:path-effect
       is_visible="true"
       id="path-effect834"
       effect="spiro" />
    <inkscape:path-effect
       effect="spiro"
       id="path-effect830"
       is_visible="true" />
  </defs>
  <sodipodi:namedview
     id="base"
     pagecolor="#ffffff"
     bordercolor="#666666"
     borderopacity="1.0"
     inkscape:pageopacity="0.0"
     inkscape:pageshadow="2"
     inkscape:zoom="0.80965909"
     inkscape:cx="20.182456"
     inkscape:cy="528"
     inkscape:document-units="in"
     inkscape:current-layer="g889"
     showgrid="true"
     units="in"
     inkscape:window-width="1920"
     inkscape:window-height="1155"
     inkscape:window-x="0"
     inkscape:window-y="1"
     inkscape:window-maximized="1">
    <inkscape:grid
       type="xygrid"
       id="grid815"
       units="in"
       spacingx="18"
       spacingy="18"
       empspacing="4" />
  </sodipodi:namedview>
  <metadata
     id="metadata5">
    <rdf:RDF>
      <cc:Work
         rdf:about="">
        <dc:format>image/svg+xml</dc:format>
        <dc:type
           rdf:resource="http://purl.org/dc/dcmitype/StillImage" />
        <dc:title></dc:title>
      </cc:Work>
    </rdf:RDF>
  </metadata>
  <g
     inkscape:label="Layer 1"
     inkscape:groupmode="layer"
     id="layer1"
     transform="translate(0,-17.6)">
    <g
       id="g889"
       transform="matrix(2.8346455,0,0,2.8346455,466.11798,-234.64342)">
      <rect
         style="opacity:1;fill:#000000;fill-opacity:0;stroke:none;stroke-width:0.09;stroke-linecap:butt;stroke-linejoin:round;stroke-miterlimit:4;stroke-dasharray:none;stroke-dashoffset:0;stroke-opacity:1"
         id="rect4322"
         width="71.958206"
         height="71.958206"
         x="-139.03607"
         y="124.97768"
         inkscape:export-xdpi="45.181782"
         inkscape:export-ydpi="45.181782" />
      <path
         style="color:#000000;font-style:normal;font-variant:normal;font-weight:normal;font-stretch:normal;font-size:medium;line-height:normal;font-family:sans-serif;text-indent:0;text-align:start;text-decoration:none;text-decoration-line:none;text-decoration-style:solid;text-decoration-color:#000000;letter-spacing:normal;word-spacing:normal;text-transform:none;direction:ltr;writing-mode:lr-tb;baseline-shift:baseline;text-anchor:start;white-space:normal;clip-rule:nonzero;display:inline;overflow:visible;visibility:visible;opacity:1;isolation:auto;mix-blend-mode:normal;color-interpolation:sRGB;color-interpolation-filters:linearRGB;solid-color:#000000;solid-opacity:1;fill:#18a15f;fill-opacity:1;fill-rule:nonzero;stroke:none;stroke-width:0.81099999;stroke-linecap:butt;stroke-linejoin:miter;stroke-miterlimit:4;stroke-dasharray:none;stroke-dashoffset:0;stroke-opacity:1;paint-order:markers stroke fill;color-rendering:auto;image-rendering:auto;shape-rendering:auto;text-rendering:auto;enable-background:accumulate"
         d="m -103.05699,124.97813 0,5.5e-4 c -17.29704,-9e-5 -31.30457,13.81673 -31.30462,30.8631 6e-5,17.04636 14.00758,30.86153 31.30462,30.86144 0.48317,0 0.40625,-0.0756 0.40625,0.7965 l 0,9.43571 c 12.800767,-5.741 22.936939,-16.03755 28.322541,-28.85943 l 0.0017,-0.004 0,-0.002 c 1.69453,-3.86094 2.570175,-8.02377 2.574174,-12.23037 -0.0011,-17.04529 -14.008419,-30.8613 -31.304625,-30.86144 z m -12.65204,10.33033 c 0.28622,0 0.5007,0.0307 0.64382,0.0921 0.368,0.12267 0.90995,0.89938 1.62553,2.33054 0.22489,0.38845 0.53152,0.94083 0.91998,1.6564 0.38845,0.71558 0.74609,1.36475 1.07321,1.94744 0.32712,0.58269 0.64418,1.12929 0.95085,1.64042 0.0613,0.0818 0.24043,0.33739 0.53689,0.76674 0.29645,0.42935 0.51613,0.7922 0.65925,1.08865 0.14311,0.29645 0.21442,0.588 0.21442,0.87423 0,0.4089 -0.29099,0.92012 -0.87367,1.53348 -0.58269,0.61334 -1.21679,1.17559 -1.9017,1.68671 -0.68491,0.51113 -1.31845,1.05252 -1.90114,1.62499 -0.58269,0.57246 -0.87423,1.0431 -0.87423,1.41111 0,0.18401 0.051,0.41356 0.15324,0.68957 0.10223,0.27601 0.18917,0.48582 0.26073,0.62894 0.0716,0.14311 0.21472,0.3883 0.42939,0.73587 0.21468,0.34757 0.33233,0.54175 0.35278,0.58264 1.55383,2.80097 3.3327,5.20352 5.33632,7.20714 2.00361,2.00362 4.40561,3.78248 7.20658,5.33631 0.0409,0.0205 0.23507,0.13757 0.58264,0.35222 0.347563,0.21468 0.593305,0.35785 0.73642,0.4294 0.143115,0.0716 0.352377,0.1585 0.628385,0.26073 0.276011,0.10222 0.506118,0.15324 0.690124,0.15324 0.368009,0 0.838095,-0.29099 1.410558,-0.87368 0.572462,-0.58269 1.114408,-1.21679 1.625535,-1.90169 0.511127,-0.68492 1.073365,-1.31846 1.686718,-1.90115 0.613351,-0.58268 1.12458,-0.87422 1.53348,-0.87422 0.286233,0 0.577224,0.0719 0.873678,0.21497 0.296452,0.14312 0.659856,0.3628 1.0892,0.65925 0.429348,0.29646 0.684409,0.47555 0.766191,0.53689 0.511125,0.30667 1.058283,0.62317 1.640968,0.95029 0.582684,0.32712 1.231866,0.68532 1.947443,1.07377 0.715577,0.38846 1.267395,0.69509 1.655852,0.91998 1.431154,0.71558 2.208417,1.25698 2.331088,1.62498 0.06133,0.14312 0.09205,0.35814 0.09205,0.64437 0,0.55202 -0.102574,1.27251 -0.307027,2.16187 -0.20445,0.88936 -0.418922,1.58955 -0.643819,2.10068 -0.429345,1.02226 -1.676694,2.10614 -3.741649,3.25107 -1.921838,1.0427 -3.823028,1.5638 -5.703977,1.5638 -0.552015,0 -1.088748,-0.0359 -1.610098,-0.10749 -0.521351,-0.0716 -1.109096,-0.19909 -1.763338,-0.38309 -0.654242,-0.18401 -1.139964,-0.33239 -1.456862,-0.44484 -0.316899,-0.11244 -0.884349,-0.3217 -1.702153,-0.62838 -0.817804,-0.30668 -1.318608,-0.49098 -1.502607,-0.55232 -2.00362,-0.71557 -3.79236,-1.56414 -5.36663,-2.54551 -2.61697,-1.61516 -5.32094,-3.81777 -8.11169,-6.60852 -2.79075,-2.79075 -4.99391,-5.49471 -6.60907,-8.11168 -0.98137,-1.57427 -1.82994,-3.36302 -2.54551,-5.36664 -0.0613,-0.184 -0.24509,-0.68536 -0.55177,-1.50316 -0.30668,-0.81781 -0.51649,-1.38526 -0.62894,-1.70215 -0.11244,-0.3169 -0.26027,-0.80207 -0.44427,-1.45632 -0.18401,-0.65424 -0.3121,-1.24198 -0.38365,-1.76334 -0.0716,-0.52134 -0.10694,-1.05807 -0.10694,-1.61009 0,-1.88095 0.5211,-3.7827 1.5638,-5.70453 1.14493,-2.06496 2.22826,-3.31175 3.25052,-3.7411 0.51112,-0.2249 1.21187,-0.43992 2.10123,-0.64437 0.88936,-0.20445 1.60985,-0.30647 2.16187,-0.30647 z"
         id="path868"
         inkscape:connector-curvature="0" />
    </g>
  </g>
</svg>
